<?xml version="1.0" encoding="utf-8"?>
<!-- Generator: Adobe Illustrator 24.1.2, SVG Export Plug-In . SVG Version: 6.00 Build 0)  -->
<svg version="1.1" id="Шар_1" xmlns="http://www.w3.org/2000/svg" xmlns:xlink="http://www.w3.org/1999/xlink" x="0px" y="0px"
	 viewBox="0 0 841.9 595.3" style="enable-background:new 0 0 841.9 595.3;" xml:space="preserve">
<style type="text/css">
	.st0{fill:none;stroke:#000000;stroke-miterlimit:10;}
</style>
<g>
	<path d="M222.2,359.9l9.7-11.9c1.6-1.9,1.7-4.6,0.3-6.7l-9.5-13.8c-1-1.5-2.8-2.4-4.6-2.4l-114.1,0.5c-1.6,0-3.1-0.7-4.2-1.8
		l-32.6-36.3c-1.9-2.1-1.9-5.3,0-7.5l32.6-36.3c1.1-1.2,2.6-1.9,4.2-1.8l114.1,0.5c1.8,0,3.6-0.9,4.6-2.4l9.5-13.8
		c1.4-2,1.3-4.7-0.3-6.7l-9.7-11.9c-1.1-1.3-2.7-2.1-4.3-2.1H86.9c-1.6,0-3.1,0.7-4.2,1.9L18,280c-1.9,2.1-1.9,5.3,0,7.4l64.7,72.6
		c1.1,1.2,2.6,1.9,4.2,1.9h130.9C219.5,361.9,221.1,361.2,222.2,359.9z"/>
	<path d="M282.4,286.1l29.8,61.5c0.9,1.9,0.7,4.1-0.5,5.7l-51.2,70.1c-1,1.4-2.7,2.3-4.5,2.3H78.6c-5.1,0-7.5-6.4-3.7-9.8l36-31.5
		c1-0.9,2.3-1.4,3.7-1.4h116.8c1.9,0,3.7-1,4.7-2.6l21-33.2c1.1-1.8,1.1-4,0.1-5.8l-19.1-32.9c-1-1.7-2.8-2.8-4.8-2.8H114.8
		c-1.5,0-2.9-0.6-3.9-1.6l-16.7-16.6c-2.2-2.2-2.2-5.7,0-7.9l16.7-16.6c1-1,2.5-1.6,3.9-1.6h118.5c2,0,3.8-1.1,4.8-2.8l19.1-32.9
		c1-1.8,1-4-0.1-5.8l-21-33.2c-1-1.6-2.8-2.6-4.7-2.6H114.6c-1.4,0-2.7-0.5-3.7-1.4l-36-31.5c-3.9-3.4-1.5-9.8,3.7-9.8H256
		c1.8,0,3.5,0.8,4.5,2.3l51.2,70.1c1.2,1.7,1.4,3.9,0.5,5.7l-29.8,61.5C281.7,282.8,281.7,284.6,282.4,286.1z"/>
</g>
<g>
	<g>
		<path d="M381.2,413.4v-4.9h6.2v4.9c0,3.9-1.2,7-3.6,9.1c-2.4,2.1-6,3.2-10.9,3.2c-4.8,0-8.5-1.1-10.9-3.2
			c-2.5-2.1-3.7-5.2-3.7-9.1v-35.3c0-3.9,1.2-7,3.6-9.1c2.4-2.1,6-3.2,10.9-3.2c4.8,0,8.5,1.1,10.9,3.2c2.5,2.1,3.7,5.2,3.7,9.1v8.4
			h-6.2v-8.4c0-4.7-2.8-7.1-8.4-7.1c-5.6,0-8.4,2.4-8.4,7.1v35.3c0,4.7,2.8,7.1,8.4,7.1C378.4,420.5,381.2,418.1,381.2,413.4z"/>
		<path d="M431.5,378.1v35.3c0,3.9-1.3,7-3.7,9.1c-2.5,2.1-6.2,3.2-11.2,3.2c-5,0-8.7-1.1-11.3-3.2c-2.5-2.1-3.8-5.2-3.8-9.1v-35.3
			c0-3.9,1.2-7,3.7-9.1c2.5-2.1,6.2-3.2,11.2-3.2c5,0,8.7,1.1,11.3,3.2C430.3,371.1,431.5,374.2,431.5,378.1z M425.4,413.4v-35.3
			c0-4.7-2.9-7.1-8.8-7.1c-5.9,0-8.8,2.4-8.8,7.1v35.3c0,4.7,2.9,7.1,8.8,7.1C422.4,420.5,425.4,418.1,425.4,413.4z"/>
		<path d="M454,424.4h-6.2v-57.4h24.3v5.3H454v20.3h14.6v5.3H454V424.4z"/>
		<path d="M490.7,424.4h-6.2v-57.4h24.3v5.3h-18.1v20.3h14.6v5.3h-14.6V424.4z"/>
		<path d="M547.1,424.4h-26v-57.4h25.1v5.3h-19v20.3h15.4v5.3h-15.4v21.2h19.9V424.4z"/>
		<path d="M586.4,424.4h-26v-57.4h25.1v5.3h-19v20.3H582v5.3h-15.4v21.2h19.9V424.4z"/>
	</g>
	<path d="M358.3,183.6h34.8c12,0,21.1,2.8,27.3,8.5c6.2,5.7,9.3,13.6,9.3,23.8v13.8c0,13.1-5.5,21.5-16.4,25.1
		c12.5,3.4,18.7,11.9,18.7,25.6v20.8c0,10.3-3.1,18.3-9.2,23.9c-6.2,5.6-15.3,8.4-27.5,8.4h-37.1V183.6z M413.7,229.8v-13.8
		c0-4.9-1.8-9.2-5.4-12.9c-3.6-3.7-8.7-5.5-15.1-5.5h-18.7v51.9h18.7c6.5,0,11.5-2,15.1-6C411.9,239.4,413.7,234.8,413.7,229.8z
		 M416,301.3v-20.8c0-4.9-1.8-9.4-5.5-13.5c-3.7-4.1-8.7-6.1-15-6.1h-21v58.8h21c6.5,0,11.5-1.8,15.1-5.4
		C414.2,310.7,416,306.4,416,301.3z"/>
	<path d="M534.8,304.7V183.6h16.2v121.1c0,10.3-3.3,18.3-9.8,23.9c-6.5,5.6-16.3,8.4-29.3,8.4c-13,0-22.8-2.8-29.4-8.4
		c-6.6-5.6-9.9-13.6-9.9-23.9V183.6h16.2v121.1c0,12.3,7.7,18.5,23.1,18.5C527.1,323.2,534.8,317,534.8,304.7z"/>
	<path d="M610.9,333.6h-16.2v-150h34.8c12,0,21.1,2.8,27.3,8.5c6.2,5.7,9.3,13.6,9.3,23.8v32.3c0,15.7-6.8,25.7-20.3,30l28.4,55.4
		h-17.8l-27-53.1h-18.7V333.6z M650.2,248.2v-32.3c0-5.8-1.8-10.4-5.3-13.6c-3.5-3.2-8.6-4.8-15.2-4.8h-18.7v69.2h18.7
		C643.3,266.7,650.2,260.5,650.2,248.2z"/>
	<path d="M781.7,212.4v92.3c0,10.3-3.3,18.3-9.8,23.9c-6.5,5.6-16.3,8.4-29.3,8.4c-13,0-22.8-2.8-29.4-8.4
		c-6.6-5.6-9.9-13.6-9.9-23.9v-92.3c0-10.3,3.3-18.3,9.8-23.9c6.5-5.6,16.3-8.4,29.3-8.4c13,0,22.8,2.8,29.4,8.4
		C778.4,194.2,781.7,202.1,781.7,212.4z M765.5,304.7v-92.3c0-12.3-7.7-18.5-23.1-18.5c-15.4,0-23.1,6.2-23.1,18.5v92.3
		c0,12.3,7.7,18.5,23.1,18.5C757.8,323.2,765.5,317,765.5,304.7z"/>
	<polyline class="st0" points="610.9,395.8 825.3,395.8 825.3,151.4 550.9,151.4 	"/>
	<line class="st0" x1="472.5" y1="151.4" x2="358.3" y2="151.4"/>
	<polygon points="495.5,165.5 484.4,151.4 495.5,137.3 506.7,151.4 	"/>
	<polygon points="527.8,165.5 516.7,151.4 527.8,137.3 539,151.4 	"/>
</g>
</svg>
